HIERARCHY
ROOT Hips
{
  OFFSET 0.000 68.846 0.000
  CHANNELS 6 Xposition Yposition Zposition Zrotation Xrotation Yrotation
  JOINT LeftUpLeg
  {
    OFFSET 7.740 0.463 3.276
    CHANNELS 6 Xposition Yposition Zposition Zrotation Xrotation Yrotation
    JOINT LeftLeg
    {
      OFFSET 0.000 -36.562 0.000
      CHANNELS 6 Xposition Yposition Zposition Zrotation Xrotation Yrotation
      JOINT LeftFoot
      {
        OFFSET 0.000 -32.746 0.000
        CHANNELS 6 Xposition Yposition Zposition Zrotation Xrotation Yrotation
        End Site
        {
          OFFSET 0.000 0.000 9.901
        }
      }
    }
  }
  JOINT RightUpLeg
  {
    OFFSET -7.740 0.463 3.276
    CHANNELS 6 Xposition Yposition Zposition Zrotation Xrotation Yrotation
    JOINT RightLeg
    {
      OFFSET 0.000 -36.562 0.000
      CHANNELS 6 Xposition Yposition Zposition Zrotation Xrotation Yrotation
      JOINT RightFoot
      {
        OFFSET 0.000 -32.746 0.000
        CHANNELS 6 Xposition Yposition Zposition Zrotation Xrotation Yrotation
        End Site
        {
          OFFSET 0.000 0.000 9.901
        }
      }
    }
  }
  JOINT Spine
  {
    OFFSET 0.000 31.008 0.000
    CHANNELS 6 Xposition Yposition Zposition Zrotation Xrotation Yrotation
    JOINT Spine1
    {
      OFFSET 0.000 22.711 0.000
      CHANNELS 6 Xposition Yposition Zposition Zrotation Xrotation Yrotation
      JOINT LeftShoulder
      {
        OFFSET 1.828 -0.488 -0.060
        CHANNELS 6 Xposition Yposition Zposition Zrotation Xrotation Yrotation
        JOINT LeftArm
        {
          OFFSET 17.065 0.000 0.000
          CHANNELS 6 Xposition Yposition Zposition Zrotation Xrotation Yrotation
          JOINT LeftForeArm
          {
            OFFSET 23.510 0.000 0.000
            CHANNELS 6 Xposition Yposition Zposition Zrotation Xrotation Yrotation
            JOINT LeftHand
            {
              OFFSET 20.790 0.000 0.000
              CHANNELS 6 Xposition Yposition Zposition Zrotation Xrotation Yrotation
              JOINT LeftHandThumb1
              {
                OFFSET 4.877 -1.044 3.608
                CHANNELS 6 Xposition Yposition Zposition Zrotation Xrotation Yrotation
                JOINT LeftHandThumb2
                {
                  OFFSET 2.665 0.000 0.000
                  CHANNELS 6 Xposition Yposition Zposition Zrotation Xrotation Yrotation
                  JOINT LeftHandThumb3
                  {
                    OFFSET 2.543 0.000 0.000
                    CHANNELS 6 Xposition Yposition Zposition Zrotation Xrotation Yrotation
                    End Site
                    {
                      OFFSET 2.667 0.000 0.000
                    }
                  }
                }
              }
              JOINT LeftHandIndex1
              {
                OFFSET 9.232 -0.301 2.144
                CHANNELS 6 Xposition Yposition Zposition Zrotation Xrotation Yrotation
                JOINT LeftHandIndex2
                {
                  OFFSET 4.225 0.000 0.000
                  CHANNELS 6 Xposition Yposition Zposition Zrotation Xrotation Yrotation
                  JOINT LeftHandIndex3
                  {
                    OFFSET 2.654 0.000 0.000
                    CHANNELS 6 Xposition Yposition Zposition Zrotation Xrotation Yrotation
                    End Site
                    {
                      OFFSET 1.958 0.000 -0.000
                    }
                  }
                }
              }
              JOINT LeftHandMiddle1
              {
                OFFSET 8.920 0.000 0.000
                CHANNELS 6 Xposition Yposition Zposition Zrotation Xrotation Yrotation
                JOINT LeftHandMiddle2
                {
                  OFFSET 4.863 0.000 -0.000
                  CHANNELS 6 Xposition Yposition Zposition Zrotation Xrotation Yrotation
                  JOINT LeftHandMiddle3
                  {
                    OFFSET 2.765 -0.000 0.000
                    CHANNELS 6 Xposition Yposition Zposition Zrotation Xrotation Yrotation
                    End Site
                    {
                      OFFSET 2.006 -0.000 0.000
                    }
                  }
                }
              }
              JOINT LeftHandRing1
              {
                OFFSET 8.689 -0.126 -2.087
                CHANNELS 6 Xposition Yposition Zposition Zrotation Xrotation Yrotation
                JOINT LeftHandRing2
                {
                  OFFSET 4.538 0.000 -0.000
                  CHANNELS 6 Xposition Yposition Zposition Zrotation Xrotation Yrotation
                  JOINT LeftHandRing3
                  {
                    OFFSET 2.305 0.000 -0.000
                    CHANNELS 6 Xposition Yposition Zposition Zrotation Xrotation Yrotation
                    End Site
                    {
                      OFFSET 1.923 0.000 0.000
                    }
                  }
                }
              }
              JOINT LeftHandPinky1
              {
                OFFSET 8.391 -0.817 -3.758
                CHANNELS 6 Xposition Yposition Zposition Zrotation Xrotation Yrotation
                JOINT LeftHandPinky2
                {
                  OFFSET 3.044 -0.000 0.000
                  CHANNELS 6 Xposition Yposition Zposition Zrotation Xrotation Yrotation
                  JOINT LeftHandPinky3
                  {
                    OFFSET 1.975 0.000 0.000
                    CHANNELS 6 Xposition Yposition Zposition Zrotation Xrotation Yrotation
                    End Site
                    {
                      OFFSET 1.667 0.000 0.000
                    }
                  }
                }
              }
            }
          }
        }
      }
      JOINT RightShoulder
      {
        OFFSET -1.828 -0.488 -0.060
        CHANNELS 6 Xposition Yposition Zposition Zrotation Xrotation Yrotation
        JOINT RightArm
        {
          OFFSET -17.065 0.000 0.000
          CHANNELS 6 Xposition Yposition Zposition Zrotation Xrotation Yrotation
          JOINT RightForeArm
          {
            OFFSET -23.510 0.000 0.000
            CHANNELS 6 Xposition Yposition Zposition Zrotation Xrotation Yrotation
            JOINT RightHand
            {
              OFFSET -20.790 0.000 0.000
              CHANNELS 6 Xposition Yposition Zposition Zrotation Xrotation Yrotation
              JOINT RightHandThumb1
              {
                OFFSET -4.877 -1.044 3.608
                CHANNELS 6 Xposition Yposition Zposition Zrotation Xrotation Yrotation
                JOINT RightHandThumb2
                {
                  OFFSET -2.665 0.000 -0.000
                  CHANNELS 6 Xposition Yposition Zposition Zrotation Xrotation Yrotation
                  JOINT RightHandThumb3
                  {
                    OFFSET -2.543 0.000 -0.000
                    CHANNELS 6 Xposition Yposition Zposition Zrotation Xrotation Yrotation
                    End Site
                    {
                      OFFSET -2.667 0.000 0.000
                    }
                  }
                }
              }
              JOINT RightHandIndex1
              {
                OFFSET -9.232 -0.301 2.144
                CHANNELS 6 Xposition Yposition Zposition Zrotation Xrotation Yrotation
                JOINT RightHandIndex2
                {
                  OFFSET -4.225 -0.000 -0.000
                  CHANNELS 6 Xposition Yposition Zposition Zrotation Xrotation Yrotation
                  JOINT RightHandIndex3
                  {
                    OFFSET -2.654 0.000 0.000
                    CHANNELS 6 Xposition Yposition Zposition Zrotation Xrotation Yrotation
                    End Site
                    {
                      OFFSET -1.958 0.000 -0.000
                    }
                  }
                }
              }
              JOINT RightHandMiddle1
              {
                OFFSET -8.920 0.000 0.000
                CHANNELS 6 Xposition Yposition Zposition Zrotation Xrotation Yrotation
                JOINT RightHandMiddle2
                {
                  OFFSET -4.863 -0.000 -0.000
                  CHANNELS 6 Xposition Yposition Zposition Zrotation Xrotation Yrotation
                  JOINT RightHandMiddle3
                  {
                    OFFSET -2.765 0.000 0.000
                    CHANNELS 6 Xposition Yposition Zposition Zrotation Xrotation Yrotation
                    End Site
                    {
                      OFFSET -2.006 0.000 -0.000
                    }
                  }
                }
              }
              JOINT RightHandRing1
              {
                OFFSET -8.689 -0.126 -2.087
                CHANNELS 6 Xposition Yposition Zposition Zrotation Xrotation Yrotation
                JOINT RightHandRing2
                {
                  OFFSET -4.538 0.000 -0.000
                  CHANNELS 6 Xposition Yposition Zposition Zrotation Xrotation Yrotation
                  JOINT RightHandRing3
                  {
                    OFFSET -2.305 -0.000 0.000
                    CHANNELS 6 Xposition Yposition Zposition Zrotation Xrotation Yrotation
                    End Site
                    {
                      OFFSET -1.923 -0.000 0.000
                    }
                  }
                }
              }
              JOINT RightHandPinky1
              {
                OFFSET -8.391 -0.817 -3.758
                CHANNELS 6 Xposition Yposition Zposition Zrotation Xrotation Yrotation
                JOINT RightHandPinky2
                {
                  OFFSET -3.044 -0.000 -0.000
                  CHANNELS 6 Xposition Yposition Zposition Zrotation Xrotation Yrotation
                  JOINT RightHandPinky3
                  {
                    OFFSET -1.975 -0.000 -0.000
                    CHANNELS 6 Xposition Yposition Zposition Zrotation Xrotation Yrotation
                    End Site
                    {
                      OFFSET -1.667 -0.000 -0.000
                    }
                  }
                }
              }
            }
          }
        }
      }
      JOINT Neck
      {
        OFFSET 0.000 0.743 0.000
        CHANNELS 6 Xposition Yposition Zposition Zrotation Xrotation Yrotation
        JOINT Head
        {
          OFFSET 0.000 6.687 0.000
          CHANNELS 6 Xposition Yposition Zposition Zrotation Xrotation Yrotation
          End Site
          {
            OFFSET 0.000 14.241 0.000
          }
        }
      }
    }
  }
}
MOTION
Frames:	4
Frame Time:	0.033333
19.63260 77.30611 -204.69855 1.20394 -2.25634 -15.31125 8.18772 0.92660 3.25789 7.45020 0.39177 -3.92980 0.00656 -35.86243 0.00337 -1.40658 8.37836 18.04319 -0.00201 -34.36388 -0.00092 -3.41960 34.65023 5.99985 -7.03089 -0.20827 3.25621 6.04885 9.24570 -18.33304 -0.00628 -35.50848 -0.00662 -5.39517 -8.93072 -18.51615 0.00012 -31.76074 -0.00125 3.00604 44.03206 -4.31539 0.00014 31.48743 -0.00001 -0.26437 1.98232 -0.16127 -0.00003 23.04221 0.00019 -0.25219 2.26299 -0.23359 1.67915 -0.44214 -0.00789 -14.71276 -0.07701 0.25674 15.67003 0.01018 -0.00023 -60.03445 2.92952 -9.83902 25.22273 0.00130 -0.00703 -7.22959 8.12017 -9.08806 24.72908 0.03622 -0.00099 -1.88393 12.82534 1.68583 4.87698 -1.04401 3.60799 -38.84870 -18.17665 4.02960 2.66500 0.00001 0.00001 0.00000 0.00000 5.00000 2.54301 0.00000 0.00001 0.00001 0.00000 60.00000 9.23199 -0.30100 2.14399 2.00000 -0.00001 0.00000 4.22498 0.00000 0.00000 2.00000 0.00000 0.00000 2.65400 0.00001 0.00001 2.00000 -0.00000 -0.00000 8.91999 0.00000 0.00000 -80.00001 -0.00000 -0.00000 4.86301 0.00000 -0.00002 -90.00000 -0.00000 0.00000 2.76500 -0.00001 0.00001 -69.99999 0.00000 0.00000 8.68899 -0.12601 -2.08700 -80.00001 -0.00000 -0.00000 4.53800 0.00001 -0.00001 -90.00000 -0.00000 0.00000 2.30501 0.00001 -0.00001 -69.99999 0.00000 0.00000 8.39099 -0.81701 -3.75801 2.00000 -0.00001 0.00000 3.04399 -0.00001 0.00000 2.00000 0.00000 0.00000 1.97500 0.00001 0.00001 2.00000 -0.00000 -0.00000 -1.78165 -0.58263 -0.01628 18.32357 -0.08592 -0.23618 -16.86615 0.00526 -0.00413 61.71141 3.74250 4.16287 -24.93102 0.00198 -0.00157 4.00491 10.31690 10.48681 -20.60721 0.04185 -0.01557 8.51688 20.05437 6.46414 -4.87700 -1.04399 3.60802 40.90540 11.75460 -3.91034 -2.66500 0.00000 -0.00001 0.00000 -0.00000 -5.00000 -2.54300 0.00000 -0.00001 -0.00000 -0.00000 -60.00000 -9.23200 -0.30100 2.14399 -2.00000 0.00000 -0.00000 -4.22500 -0.00001 -0.00001 -2.00000 0.00000 -0.00000 -2.65403 0.00001 0.00001 -2.00000 -0.00071 0.00000 -8.92000 0.00001 0.00001 80.00000 -0.00001 0.00001 -4.86301 -0.00001 -0.00002 90.00001 -0.00001 0.00001 -2.76500 0.00000 0.00000 70.00001 -0.00000 0.00001 -8.68900 -0.12599 -2.08699 80.00000 -0.00001 0.00001 -4.53801 0.00000 -0.00002 90.00001 -0.00001 0.00001 -2.30500 -0.00001 0.00001 70.00001 -0.00000 0.00001 -8.39100 -0.81699 -3.75797 -2.00000 0.00000 -0.00000 -3.04400 -0.00001 -0.00001 -2.00000 0.00000 -0.00000 -1.97500 -0.00001 -0.00002 -2.00000 -0.00071 0.00000 -0.00000 0.74360 0.00002 0.00001 -0.00004 0.00000 -0.00799 6.76564 0.00847 10.80829 13.30724 28.25889 
19.63260 77.30181 -204.69855 1.23014 -2.24468 -15.26919 8.18772 0.92660 3.25789 7.38851 0.36381 -3.93313 0.00656 -35.86243 0.00337 -1.34951 8.39984 17.97560 -0.00201 -34.35096 -0.00092 -3.44761 34.53823 6.06578 -7.03089 -0.20827 3.25621 6.01719 9.20509 -18.23313 -0.00628 -35.46044 -0.00662 -5.38774 -8.83762 -18.43496 0.00012 -31.79153 -0.00125 2.98131 44.08770 -4.27565 0.00014 31.48743 -0.00001 -0.26412 1.98232 -0.16856 -0.00003 23.04221 0.00019 -0.25221 2.25849 -0.23359 1.67915 -0.44214 -0.00789 -14.73937 -0.07701 0.25674 15.67003 0.01018 -0.00023 -59.89025 3.00640 -9.88884 25.22273 0.00130 -0.00703 -7.44651 7.98603 -9.09654 24.79763 0.02628 -0.00099 -3.81511 13.55970 1.74862 4.87698 -1.04401 3.60799 -38.84870 -18.17665 4.02960 2.66500 0.00001 0.00001 0.00000 0.00000 5.00000 2.54301 0.00000 0.00001 0.00001 0.00000 60.00000 9.23199 -0.30100 2.14399 2.00000 -0.00001 0.00000 4.22498 0.00000 0.00000 2.00000 0.00000 0.00000 2.65400 0.00001 0.00001 2.00000 -0.00000 -0.00000 8.91999 0.00000 0.00000 -80.00001 -0.00000 -0.00000 4.86301 0.00000 -0.00002 -90.00000 -0.00000 0.00000 2.76500 -0.00001 0.00001 -69.99999 0.00000 0.00000 8.68899 -0.12601 -2.08700 -80.00001 -0.00000 -0.00000 4.53800 0.00001 -0.00001 -90.00000 -0.00000 0.00000 2.30501 0.00001 -0.00001 -69.99999 0.00000 0.00000 8.39099 -0.81701 -3.75801 2.00000 -0.00001 0.00000 3.04399 -0.00001 0.00000 2.00000 0.00000 0.00000 1.97500 0.00001 0.00001 2.00000 -0.00000 -0.00000 -1.78165 -0.58263 -0.01628 18.32357 -0.08592 -0.23618 -16.87531 0.00526 -0.00413 61.52227 3.82966 4.06395 -24.93102 0.00198 -0.00157 4.28621 10.21261 10.85204 -20.62562 0.03130 -0.00812 9.90578 20.56340 7.39991 -4.87700 -1.04399 3.60802 40.90540 11.75460 -3.91034 -2.66500 0.00000 -0.00001 0.00000 -0.00000 -5.00000 -2.54300 0.00000 -0.00001 -0.00000 -0.00000 -60.00000 -9.23200 -0.30100 2.14399 -2.00000 0.00000 -0.00000 -4.22500 -0.00001 -0.00001 -2.00000 0.00000 -0.00000 -2.65403 0.00001 0.00001 -2.00000 -0.00071 0.00000 -8.92000 0.00001 0.00001 80.00000 -0.00001 0.00001 -4.86301 -0.00001 -0.00002 90.00001 -0.00001 0.00001 -2.76500 0.00000 0.00000 70.00001 -0.00000 0.00001 -8.68900 -0.12599 -2.08699 80.00000 -0.00001 0.00001 -4.53801 0.00000 -0.00002 90.00001 -0.00001 0.00001 -2.30500 -0.00001 0.00001 70.00001 -0.00000 0.00001 -8.39100 -0.81699 -3.75797 -2.00000 0.00000 -0.00000 -3.04400 -0.00001 -0.00001 -2.00000 0.00000 -0.00000 -1.97500 -0.00001 -0.00002 -2.00000 -0.00071 0.00000 -0.00000 0.74360 0.00002 0.00001 -0.00004 0.00000 -0.00799 6.76564 0.00847 10.75583 13.21126 27.89837 
19.62968 77.29655 -204.69855 1.24290 -2.23237 -15.24012 8.18559 0.92660 3.25789 7.36444 0.34211 -3.90160 0.00656 -35.86243 0.00337 -1.31716 8.41735 17.89771 -0.00201 -34.34709 -0.00092 -3.44740 34.43190 6.08170 -7.03089 -0.20827 3.25621 6.02039 9.16443 -18.10560 -0.00628 -35.41931 -0.00662 -5.42319 -8.75468 -18.42632 0.00012 -31.81121 -0.00125 3.22898 44.31616 -4.61165 0.00014 31.48743 -0.00001 -0.26399 1.97840 -0.17279 -0.00003 23.04221 0.00019 -0.25223 2.25392 -0.23359 1.67915 -0.44214 -0.00789 -14.76226 -0.07701 0.25674 15.67003 0.01018 -0.00023 -59.82412 3.05990 -9.90265 25.22273 0.00130 -0.00703 -7.61393 7.85314 -9.13215 24.85155 0.01667 -0.00099 -5.64161 14.20896 1.68795 4.87698 -1.04401 3.60799 -38.84870 -18.17665 4.02960 2.66500 0.00001 0.00001 0.00000 0.00000 5.00000 2.54301 0.00000 0.00001 0.00001 0.00000 60.00000 9.23199 -0.30100 2.14399 2.00000 -0.00001 0.00000 4.22498 0.00000 0.00000 2.00000 0.00000 0.00000 2.65400 0.00001 0.00001 2.00000 -0.00000 -0.00000 8.91999 0.00000 0.00000 -80.00001 -0.00000 -0.00000 4.86301 0.00000 -0.00002 -90.00000 -0.00000 0.00000 2.76500 -0.00001 0.00001 -69.99999 0.00000 0.00000 8.68899 -0.12601 -2.08700 -80.00001 -0.00000 -0.00000 4.53800 0.00001 -0.00001 -90.00000 -0.00000 0.00000 2.30501 0.00001 -0.00001 -69.99999 0.00000 0.00000 8.39099 -0.81701 -3.75801 2.00000 -0.00001 0.00000 3.04399 -0.00001 0.00000 2.00000 0.00000 0.00000 1.97500 0.00001 0.00001 2.00000 -0.00000 -0.00000 -1.78165 -0.58263 -0.01628 18.32644 -0.08592 -0.23618 -16.88116 0.00526 -0.00413 61.42229 3.94174 4.02839 -24.93102 0.00198 -0.00157 4.64007 10.03804 11.19086 -20.66102 0.02041 0.00018 11.19529 20.63113 7.73369 -4.87700 -1.04399 3.60802 40.90540 11.75460 -3.91034 -2.66500 0.00000 -0.00001 0.00000 -0.00000 -5.00000 -2.54300 0.00000 -0.00001 -0.00000 -0.00000 -60.00000 -9.23200 -0.30100 2.14399 -2.00000 0.00000 -0.00000 -4.22500 -0.00001 -0.00001 -2.00000 0.00000 -0.00000 -2.65403 0.00001 0.00001 -2.00000 -0.00071 0.00000 -8.92000 0.00001 0.00001 80.00000 -0.00001 0.00001 -4.86301 -0.00001 -0.00002 90.00001 -0.00001 0.00001 -2.76500 0.00000 0.00000 70.00001 -0.00000 0.00001 -8.68900 -0.12599 -2.08699 80.00000 -0.00001 0.00001 -4.53801 0.00000 -0.00002 90.00001 -0.00001 0.00001 -2.30500 -0.00001 0.00001 70.00001 -0.00000 0.00001 -8.39100 -0.81699 -3.75797 -2.00000 0.00000 -0.00000 -3.04400 -0.00001 -0.00001 -2.00000 0.00000 -0.00000 -1.97500 -0.00001 -0.00002 -2.00000 -0.00071 0.00000 -0.00000 0.74360 0.00002 0.00001 -0.00004 0.00000 -0.00799 6.76564 0.00847 10.72728 13.14409 27.51175 
19.61689 77.29038 -204.69855 1.24506 -2.21848 -15.20409 8.18163 0.92660 3.25789 7.37321 0.31909 -3.85303 0.00656 -35.86243 0.00337 -1.30922 8.40670 17.81998 -0.00201 -34.35448 -0.00092 -3.52487 34.39822 6.22295 -7.03089 -0.20827 3.25621 6.04328 9.13454 -17.99193 -0.00628 -35.39250 -0.00662 -5.45534 -8.69591 -18.43875 0.00012 -31.82528 -0.00125 3.37238 44.48561 -4.80174 0.00014 31.48743 -0.00001 -0.26372 1.97102 -0.18127 -0.00003 23.04221 0.00019 -0.25175 2.24904 -0.23266 1.67915 -0.44214 -0.00789 -14.76870 -0.07701 0.26170 15.66786 0.01018 -0.00023 -59.87813 3.09709 -9.90536 25.22273 0.00130 -0.00703 -7.71330 7.69230 -9.16694 24.89532 0.00618 -0.00099 -7.20620 14.68546 1.69637 4.87698 -1.04401 3.60799 -38.84870 -18.17665 4.02960 2.66500 0.00001 0.00001 0.00000 0.00000 5.00000 2.54301 0.00000 0.00001 0.00001 0.00000 60.00000 9.23199 -0.30100 2.14399 2.00000 -0.00001 0.00000 4.22498 0.00000 0.00000 2.00000 0.00000 0.00000 2.65400 0.00001 0.00001 2.00000 -0.00000 -0.00000 8.91999 0.00000 0.00000 -80.00001 -0.00000 -0.00000 4.86301 0.00000 -0.00002 -90.00000 -0.00000 0.00000 2.76500 -0.00001 0.00001 -69.99999 0.00000 0.00000 8.68899 -0.12601 -2.08700 -80.00001 -0.00000 -0.00000 4.53800 0.00001 -0.00001 -90.00000 -0.00000 0.00000 2.30501 0.00001 -0.00001 -69.99999 0.00000 0.00000 8.39099 -0.81701 -3.75801 2.00000 -0.00001 0.00000 3.04399 -0.00001 0.00000 2.00000 0.00000 0.00000 1.97500 0.00001 0.00001 2.00000 -0.00000 -0.00000 -1.78165 -0.58263 -0.01628 18.33666 -0.08592 -0.24086 -16.88113 0.00526 -0.00413 61.42110 4.03737 4.08689 -24.93102 0.00198 -0.00157 4.95600 9.80056 11.32393 -20.69246 0.01029 0.00736 12.11874 20.36967 7.75675 -4.87700 -1.04399 3.60802 40.90540 11.75460 -3.91034 -2.66500 0.00000 -0.00001 0.00000 -0.00000 -5.00000 -2.54300 0.00000 -0.00001 -0.00000 -0.00000 -60.00000 -9.23200 -0.30100 2.14399 -2.00000 0.00000 -0.00000 -4.22500 -0.00001 -0.00001 -2.00000 0.00000 -0.00000 -2.65403 0.00001 0.00001 -2.00000 -0.00071 0.00000 -8.92000 0.00001 0.00001 80.00000 -0.00001 0.00001 -4.86301 -0.00001 -0.00002 90.00001 -0.00001 0.00001 -2.76500 0.00000 0.00000 70.00001 -0.00000 0.00001 -8.68900 -0.12599 -2.08699 80.00000 -0.00001 0.00001 -4.53801 0.00000 -0.00002 90.00001 -0.00001 0.00001 -2.30500 -0.00001 0.00001 70.00001 -0.00000 0.00001 -8.39100 -0.81699 -3.75797 -2.00000 0.00000 -0.00000 -3.04400 -0.00001 -0.00001 -2.00000 0.00000 -0.00000 -1.97500 -0.00001 -0.00002 -2.00000 -0.00071 0.00000 -0.00000 0.74360 0.00002 0.00001 -0.00004 0.00000 -0.00799 6.76564 0.00754 10.70839 13.07590 24.26287 
